<svg width="512" height="512" viewBox="0 0 512 512" fill="none" xmlns="http://www.w3.org/2000/svg">
<rect width="512" height="512" fill="black"/>
<path d="M337.143 262.796V240.408C337.143 214.09 336.573 183.157 335.434 147.61C335.206 141.572 322.73 137.527 298.007 135.477C296.412 131.489 295.614 127.843 295.614 124.539C295.614 122.488 296.412 119.013 298.007 114.114C315.325 114.798 332.699 115.14 350.131 115.14C367.676 115.14 385.678 114.798 404.135 114.114C405.73 119.013 406.527 122.488 406.527 124.539C406.527 127.843 405.73 131.489 404.135 135.477C380.551 137.755 368.645 141.8 368.417 147.61C366.936 171.65 366.195 206.798 366.195 253.055C366.195 305.236 366.936 347.448 368.417 379.69L354.403 380.032L192.221 181.619C192.221 183.67 192.164 187.43 192.05 192.898C191.936 198.253 191.879 202.412 191.879 205.374C191.879 260.403 192.619 307.286 194.101 346.023C194.328 352.176 206.804 356.277 231.527 358.328C233.122 362.316 233.92 365.962 233.92 369.266C233.92 371.772 233.122 375.475 231.527 380.374C213.982 379.69 196.607 379.349 179.403 379.349C161.858 379.349 143.856 379.69 125.399 380.374C123.804 375.475 123.007 371.772 123.007 369.266C123.007 365.962 123.804 362.316 125.399 358.328C148.983 356.049 160.889 351.948 161.117 346.023C162.484 322.098 163.168 287.007 163.168 240.75C163.168 205.317 162.712 173.701 161.801 145.901C154.395 140.091 143.116 136.616 127.963 135.477C126.254 132.4 125.399 128.868 125.399 124.881C125.399 120.665 126.482 116.849 128.646 113.431C152.458 114.57 182.536 115.14 218.881 115.14L337.143 262.796ZM359.188 253.055C359.188 218.533 359.929 183.385 361.41 147.61C361.866 137.356 374.455 131.09 399.179 128.812C400.09 126.875 400.09 124.197 399.179 120.779C377.646 121.463 362.379 121.805 353.378 121.805C339.136 121.805 322.901 121.463 304.672 120.779C303.76 124.197 303.76 126.875 304.672 128.812C329.623 131.09 342.213 137.356 342.44 147.61C343.58 183.157 344.149 214.09 344.149 240.408C344.149 255.789 343.922 276.525 343.466 302.615L196.151 122.146C170.517 122.146 149.268 121.691 132.406 120.779C131.495 123.514 131.495 126.191 132.406 128.812C147.104 129.723 159.237 134.394 168.808 142.825C169.719 170.511 170.175 203.152 170.175 240.75C170.175 275.271 169.491 310.363 168.124 346.023C167.668 356.391 155.079 362.715 130.355 364.993C129.444 366.816 129.444 369.493 130.355 373.025C151.775 372.342 167.042 372 176.156 372C190.398 372 206.633 372.342 224.862 373.025C225.774 369.493 225.774 366.816 224.862 364.993C199.911 362.715 187.322 356.391 187.094 346.023C185.954 310.59 185.385 279.715 185.385 253.396C185.385 223.318 185.727 193.525 186.41 164.017H188.119L357.821 373.025L361.068 372.684C359.815 345.91 359.188 306.033 359.188 253.055Z" fill="white"/>
</svg>
